<svg viewBox="0 0 606 108" fill="none" 
  xmlns="http://www.w3.org/2000/svg">
  <path d="M123.984 106.231C123.02 106.231 122.153 105.894 121.382 105.219C120.708 104.448 120.371 103.581 120.371 102.617V8.6719C120.371 7.612 120.708 6.74481 121.382 6.07033C122.153 5.39584 123.02 5.0586 123.984 5.0586H139.593C141.906 5.0586 143.592 6.1185 144.652 8.2383L170.09 53.7658L195.527 8.2383C196.587 6.1185 198.273 5.0586 200.586 5.0586H216.051C217.11 5.0586 217.978 5.39584 218.652 6.07033C219.423 6.74481 219.808 7.612 219.808 8.6719V102.617C219.808 103.677 219.423 104.545 218.652 105.219C217.978 105.894 217.11 106.231 216.051 106.231H198.851C197.791 106.231 196.876 105.894 196.105 105.219C195.431 104.545 195.093 103.677 195.093 102.617V48.4181L178.906 78.6252C177.653 80.8414 175.967 81.9494 173.847 81.9494H166.332C165.079 81.9494 164.067 81.6604 163.297 81.0823C162.526 80.5041 161.851 79.6851 161.273 78.6252L144.941 48.4181V102.617C144.941 103.581 144.604 104.448 143.929 105.219C143.255 105.894 142.388 106.231 141.328 106.231H123.984Z" fill="white"/>
  <path d="M274.026 107.676C262.078 107.676 252.876 104.834 246.42 99.1487C239.965 93.4638 236.448 85.4664 235.869 75.1565C235.773 73.9038 235.725 71.7359 235.725 68.6525C235.725 65.5692 235.773 63.4012 235.869 62.1486C236.448 51.935 240.061 43.9858 246.709 38.3009C253.358 32.5196 262.463 29.629 274.026 29.629C285.685 29.629 294.838 32.5196 301.487 38.3009C308.135 43.9858 311.749 51.935 312.327 62.1486C312.423 63.4012 312.471 65.5692 312.471 68.6525C312.471 71.7359 312.423 73.9038 312.327 75.1565C311.749 85.4664 308.232 93.4638 301.776 99.1487C295.32 104.834 286.07 107.676 274.026 107.676ZM274.026 90.0432C278.265 90.0432 281.397 88.7906 283.42 86.2854C285.444 83.6838 286.6 79.7333 286.889 74.4338C286.985 73.4703 287.034 71.5432 287.034 68.6525C287.034 65.7619 286.985 63.8348 286.889 62.8713C286.6 57.6681 285.396 53.7658 283.276 51.1642C281.252 48.5626 278.169 47.2618 274.026 47.2618C266.028 47.2618 261.789 52.465 261.307 62.8713L261.163 68.6525L261.307 74.4338C261.5 79.7333 262.608 83.6838 264.631 86.2854C266.751 88.7906 269.883 90.0432 274.026 90.0432Z" fill="white"/>
  <path d="M357.757 107.676C349.952 107.676 343.4 106.568 338.101 104.352C332.898 102.136 329.043 99.486 326.538 96.4026C324.033 93.3193 322.78 90.5732 322.78 88.1643C322.78 87.2008 323.118 86.4299 323.792 85.8518C324.563 85.1773 325.382 84.8401 326.249 84.8401H342.726C343.304 84.8401 343.834 85.081 344.316 85.5627C345.472 86.3336 346.339 86.9599 346.917 87.4417C349.037 88.9833 350.868 90.1396 352.409 90.9104C354.047 91.5849 356.023 91.9221 358.335 91.9221C361.129 91.9221 363.394 91.3922 365.128 90.3323C366.959 89.176 367.874 87.5862 367.874 85.5627C367.874 83.9247 367.393 82.6239 366.429 81.6604C365.562 80.6968 363.827 79.7815 361.226 78.9143C358.624 77.9507 354.674 76.939 349.374 75.8791C341.377 74.2411 335.21 71.5913 330.874 67.9299C326.635 64.172 324.515 59.1616 324.515 52.8986C324.515 48.9481 325.767 45.1902 328.273 41.6251C330.778 38.06 334.487 35.1694 339.402 32.9532C344.412 30.7371 350.338 29.629 357.179 29.629C364.02 29.629 369.994 30.6889 375.101 32.8087C380.208 34.9285 384.062 37.53 386.663 40.6134C389.361 43.6004 390.71 46.3465 390.71 48.8517C390.71 49.7189 390.373 50.4897 389.699 51.1642C389.12 51.8387 388.398 52.1759 387.531 52.1759H372.499C371.728 52.1759 371.006 51.935 370.331 51.4533C369.079 50.7788 367.971 50.0561 367.007 49.2853C365.369 48.0327 363.827 47.0691 362.382 46.3947C360.937 45.7202 359.154 45.3829 357.034 45.3829C354.529 45.3829 352.506 45.9611 350.964 47.1173C349.519 48.2736 348.796 49.7671 348.796 51.5978C348.796 53.0431 349.182 54.2475 349.952 55.2111C350.82 56.1746 352.554 57.1382 355.155 58.1017C357.853 58.9689 361.804 59.8843 367.007 60.8478C376.353 62.4858 383.146 65.3765 387.386 69.5197C391.722 73.663 393.89 78.5289 393.89 84.1174C393.89 91.2477 390.71 96.9807 384.351 101.317C377.991 105.556 369.127 107.676 357.757 107.676Z" fill="white"/>
  <path d="M429.262 107.676C424.155 107.676 419.482 106.713 415.242 104.785C411.099 102.762 407.823 100.064 405.414 96.6917C403.102 93.2229 401.945 89.4169 401.945 85.2737C401.945 78.6252 404.643 73.2775 410.039 69.2307C415.531 65.1838 423.047 62.3895 432.586 60.8478L450.653 58.1017V56.0783C450.653 52.4168 449.882 49.7189 448.34 47.9845C446.798 46.2501 444.197 45.3829 440.535 45.3829C438.319 45.3829 436.488 45.7684 435.043 46.5392C433.598 47.31 432.104 48.3699 430.563 49.7189C429.214 50.8751 428.202 51.646 427.527 52.0314C427.238 52.8022 426.708 53.1876 425.938 53.1876H410.184C409.22 53.1876 408.401 52.8986 407.727 52.3205C407.148 51.646 406.908 50.8751 407.004 50.0079C407.1 47.4064 408.353 44.5157 410.762 41.336C413.267 38.1563 417.025 35.4103 422.035 33.0977C427.142 30.7852 433.405 29.629 440.824 29.629C452.676 29.629 461.444 32.2787 467.129 37.5782C472.814 42.7814 475.656 49.8152 475.656 58.6798V102.617C475.656 103.581 475.319 104.448 474.645 105.219C473.97 105.894 473.103 106.231 472.043 106.231H455.278C454.314 106.231 453.447 105.894 452.676 105.219C452.001 104.448 451.664 103.581 451.664 102.617V97.5589C449.544 100.546 446.557 103.003 442.703 104.93C438.945 106.761 434.465 107.676 429.262 107.676ZM436.055 91.1995C440.487 91.1995 444.052 89.7542 446.75 86.8635C449.544 83.9729 450.942 79.7333 450.942 74.1447V72.1213L438.656 74.2893C429.985 75.8309 425.649 78.8661 425.649 83.3948C425.649 85.8036 426.66 87.7307 428.684 89.176C430.707 90.525 433.164 91.1995 436.055 91.1995Z" fill="white"/>
  <path d="M495.435 20.2344C494.375 20.2344 493.508 19.8972 492.833 19.2227C492.159 18.5482 491.821 17.681 491.821 16.6211V3.61329C491.821 2.55339 492.159 1.6862 492.833 1.01172C493.508 0.337238 494.375 0 495.435 0H512.779C513.838 0 514.706 0.337238 515.38 1.01172C516.055 1.6862 516.392 2.55339 516.392 3.61329V16.6211C516.392 17.681 516.055 18.5482 515.38 19.2227C514.706 19.8972 513.838 20.2344 512.779 20.2344H495.435ZM495.579 106.231C494.519 106.231 493.652 105.894 492.978 105.219C492.303 104.545 491.966 103.677 491.966 102.617V34.6876C491.966 33.6277 492.303 32.7605 492.978 32.086C493.652 31.4115 494.519 31.0743 495.579 31.0743H512.634C513.694 31.0743 514.561 31.4115 515.236 32.086C515.91 32.7605 516.247 33.6277 516.247 34.6876V102.617C516.247 103.581 515.91 104.448 515.236 105.219C514.561 105.894 513.694 106.231 512.634 106.231H495.579Z" fill="white"/>
  <path d="M567.864 107.676C556.976 107.676 548.16 104.785 541.415 99.0042C534.67 93.1266 531.057 84.9846 530.575 74.5783L530.431 68.7971L530.575 62.8713C530.961 52.465 534.526 44.323 541.271 38.4454C548.112 32.5678 556.976 29.629 567.864 29.629C576.054 29.629 582.944 31.1225 588.532 34.1095C594.217 37.0001 598.409 40.517 601.107 44.6603C603.901 48.7072 605.394 52.4168 605.587 55.7892C605.683 56.7528 605.346 57.6199 604.575 58.3908C603.901 59.0653 603.034 59.4025 601.974 59.4025H583.618C582.558 59.4025 581.739 59.1616 581.161 58.6798C580.583 58.1981 580.053 57.4754 579.571 56.5119C578.415 53.5249 576.922 51.4051 575.091 50.1525C573.357 48.8999 571.092 48.2736 568.298 48.2736C560.397 48.2736 556.302 53.3804 556.013 63.5939L555.868 69.0861L556.013 73.8557C556.205 79.0588 557.314 82.913 559.337 85.4182C561.457 87.8271 564.444 89.0315 568.298 89.0315C571.285 89.0315 573.646 88.4052 575.38 87.1526C577.114 85.9 578.511 83.7802 579.571 80.7932C580.053 79.8297 580.583 79.107 581.161 78.6252C581.739 78.1434 582.558 77.9026 583.618 77.9026H601.974C602.937 77.9026 603.756 78.2398 604.431 78.9143C605.202 79.4924 605.587 80.2632 605.587 81.2268C605.587 84.3101 604.238 87.9234 601.54 92.0667C598.939 96.2099 594.795 99.8714 589.11 103.051C583.426 106.134 576.344 107.676 567.864 107.676Z" fill="white"/>
  <rect y="53" width="46" height="46" rx="6" fill="currentColor"/>
  <rect x="46" y="5" width="46" height="46" rx="6" fill="currentColor"/>
</svg>
