<svg width="40" height="40" viewBox="0 0 40 40" fill="none" 
  xmlns="http://www.w3.org/2000/svg">
  <path d="M0 4.58314C0 2.05194 2.05194 0 4.58314 0H35.4169C37.9481 0 40 2.05194 40 4.58314V35.4169C40 37.9481 37.9481 40 35.4169 40H4.58314C2.05194 40 0 37.9481 0 35.4169V4.58314Z" fill="#C175E0"/>
  <path d="M6.11964 1.52368L10.756 7.7833H1.48324L6.11964 1.52368Z" fill="#A652C8"/>
  <path d="M6.11797 13.9446L1.48158 7.68496L10.7544 7.68496L6.11797 13.9446Z" fill="#A652C8"/>
  <path d="M6.11823 26.3657L10.7546 32.6253H1.48184L6.11823 26.3657Z" fill="#A652C8"/>
  <path d="M6.11651 38.7866L1.48012 32.527L10.7529 32.527L6.11651 38.7866Z" fill="#A652C8"/>
  <path d="M6.11774 13.9456L10.7541 20.2052H1.48135L6.11774 13.9456Z" fill="#B264D2"/>
  <path d="M6.11651 26.3684L1.48012 20.1088L10.7529 20.1088L6.11651 26.3684Z" fill="#B264D2"/>
  <path d="M24.6668 1.52368L29.3032 7.7833H20.0304L24.6668 1.52368Z" fill="#A652C8"/>
  <path d="M24.6655 13.9436L20.0291 7.68398L29.3019 7.68398L24.6655 13.9436Z" fill="#A652C8"/>
  <path d="M24.6678 26.3657L29.3042 32.6253H20.0314L24.6678 26.3657Z" fill="#A652C8"/>
  <path d="M24.6655 38.7856L20.0291 32.526L29.3019 32.526L24.6655 38.7856Z" fill="#A652C8"/>
  <path d="M24.6668 13.9456L29.3032 20.2052H20.0304L24.6668 13.9456Z" fill="#B264D2"/>
  <path d="M24.6655 26.3674L20.0291 20.1078L29.3019 20.1078L24.6655 26.3674Z" fill="#B264D2"/>
  <path d="M15.3924 1.52368L20.0288 7.7833H10.756L15.3924 1.52368Z" fill="#B264D2"/>
  <path d="M15.3913 13.9446L10.7549 7.68496L20.0277 7.68496L15.3913 13.9446Z" fill="#B264D2"/>
  <path d="M15.3919 26.3657L20.0283 32.6253H10.7555L15.3919 26.3657Z" fill="#B264D2"/>
  <path d="M15.3913 38.7866L10.7549 32.527L20.0277 32.527L15.3913 38.7866Z" fill="#B264D2"/>
  <path d="M15.3924 13.9456L20.0288 20.2052H10.756L15.3924 13.9456Z" fill="#A652C8"/>
  <path d="M15.3913 26.3684L10.7549 20.1088L20.0277 20.1088L15.3913 26.3684Z" fill="#A652C8"/>
  <path d="M33.9389 1.52368L38.5753 7.7833H29.3025L33.9389 1.52368Z" fill="#B264D2"/>
  <path d="M33.9391 13.9446L29.3027 7.68496L38.5755 7.68496L33.9391 13.9446Z" fill="#B264D2"/>
  <path d="M33.9397 26.3657L38.5761 32.6253H29.3033L33.9397 26.3657Z" fill="#B264D2"/>
  <path d="M33.9389 38.7856L29.3025 32.526L38.5753 32.526L33.9389 38.7856Z" fill="#B264D2"/>
  <path d="M33.9389 13.9456L38.5753 20.2052H29.3025L33.9389 13.9456Z" fill="#A652C8"/>
  <path d="M33.9391 26.3684L29.3027 20.1088L38.5755 20.1088L33.9391 26.3684Z" fill="#A652C8"/>
</svg>
