<svg viewBox="0 0 40 40" fill="none" 
  xmlns="http://www.w3.org/2000/svg">
  <rect x="0" width="40" height="40" rx="5" fill="#C175E0"/>
  <path d="M6.91614 1.52368L11.5525 7.7833H2.27975L6.91614 1.52368Z" fill="#A652C8"/>
  <path d="M6.91442 13.9445L2.27803 7.68484L11.5508 7.68484L6.91442 13.9445Z" fill="#A652C8"/>
  <path d="M6.91468 26.3656L11.5511 32.6252H2.27829L6.91468 26.3656Z" fill="#A652C8"/>
  <path d="M6.91296 38.7866L2.27656 32.527L11.5493 32.527L6.91296 38.7866Z" fill="#A652C8"/>
  <path d="M6.91419 13.9457L11.5506 20.2053H2.2778L6.91419 13.9457Z" fill="#B264D2"/>
  <path d="M6.91296 26.3685L2.27656 20.1089L11.5493 20.1089L6.91296 26.3685Z" fill="#B264D2"/>
  <path d="M25.4633 1.52368L30.0997 7.7833H20.8269L25.4633 1.52368Z" fill="#A652C8"/>
  <path d="M25.462 13.9437L20.8256 7.68411L30.0984 7.68411L25.462 13.9437Z" fill="#A652C8"/>
  <path d="M25.4642 26.3656L30.1006 32.6252H20.8278L25.4642 26.3656Z" fill="#A652C8"/>
  <path d="M25.462 38.7856L20.8256 32.526L30.0984 32.526L25.462 38.7856Z" fill="#A652C8"/>
  <path d="M25.4633 13.9457L30.0997 20.2053H20.8269L25.4633 13.9457Z" fill="#B264D2"/>
  <path d="M25.462 26.3677L20.8256 20.1081L30.0984 20.1081L25.462 26.3677Z" fill="#B264D2"/>
  <path d="M16.1886 1.52368L20.825 7.7833H11.5522L16.1886 1.52368Z" fill="#B264D2"/>
  <path d="M16.1876 13.9445L11.5512 7.68484L20.824 7.68484L16.1876 13.9445Z" fill="#B264D2"/>
  <path d="M16.1881 26.3656L20.8245 32.6252H11.5517L16.1881 26.3656Z" fill="#B264D2"/>
  <path d="M16.1876 38.7866L11.5512 32.527L20.824 32.527L16.1876 38.7866Z" fill="#B264D2"/>
  <path d="M16.1886 13.9457L20.825 20.2053H11.5522L16.1886 13.9457Z" fill="#A652C8"/>
  <path d="M16.1876 26.3685L11.5512 20.1089L20.824 20.1089L16.1876 26.3685Z" fill="#A652C8"/>
  <path d="M34.7352 1.52368L39.3716 7.7833H30.0988L34.7352 1.52368Z" fill="#B264D2"/>
  <path d="M34.7355 13.9445L30.0991 7.68484L39.3719 7.68484L34.7355 13.9445Z" fill="#B264D2"/>
  <path d="M34.736 26.3656L39.3724 32.6252H30.0996L34.736 26.3656Z" fill="#B264D2"/>
  <path d="M34.7352 38.7856L30.0988 32.526L39.3716 32.526L34.7352 38.7856Z" fill="#B264D2"/>
  <path d="M34.7352 13.9457L39.3716 20.2053H30.0988L34.7352 13.9457Z" fill="#A652C8"/>
  <path d="M34.7355 26.3685L30.0991 20.1089L39.3719 20.1089L34.7355 26.3685Z" fill="#A652C8"/>
</svg>
