<svg width="40" height="40" viewBox="0 0 40 40" fill="none" 
  xmlns="http://www.w3.org/2000/svg">
  <path d="M0 4.58314C0 2.05194 2.05194 0 4.58314 0H35.4169C37.9481 0 40 2.05194 40 4.58314V35.4169C40 37.9481 37.9481 40 35.4169 40H4.58314C2.05194 40 0 37.9481 0 35.4169V4.58314Z" fill="#3FE2C5"/>
  <path d="M4.18215 13.8141C6.68166 11.1408 9.45784 10.8304 10.5516 10.943C10.6642 12.0367 10.3537 14.8129 7.68051 17.3124C5.00728 19.8119 2.31636 20.2398 1.3714 20.1232C1.25479 19.1782 1.68263 16.4873 4.18215 13.8141Z" fill="#1DA48B"/>
  <path d="M13.3744 4.62363C15.8739 1.9504 18.6501 1.63997 19.7438 1.75257C19.8564 2.84631 19.546 5.62248 16.8728 8.12199C14.1995 10.6215 11.5086 11.0494 10.5637 10.9327C10.4471 9.98778 10.8749 7.29686 13.3744 4.62363Z" fill="#1DA48B"/>
  <path d="M22.5666 32.2042C25.0661 29.531 27.8423 29.2205 28.936 29.3331C29.0486 30.4269 28.7382 33.203 26.065 35.7026C23.3917 38.2021 20.7008 38.6299 19.7559 38.5133C19.6393 37.5683 20.0671 34.8774 22.5666 32.2042Z" fill="#1DA48B"/>
  <path d="M31.759 23.0091C34.2585 20.3359 37.0347 20.0255 38.1284 20.1381C38.241 21.2318 37.9306 24.008 35.2574 26.5075C32.5841 29.007 29.8932 29.4349 28.9482 29.3182C28.8316 28.3733 29.2595 25.6824 31.759 23.0091Z" fill="#1DA48B"/>
  <path d="M13.4344 35.6974C10.7612 33.1979 10.4507 30.4217 10.5633 29.328C11.6571 29.2154 14.4332 29.5258 16.9328 32.1991C19.4323 34.8723 19.8601 37.5632 19.7435 38.5082C18.7985 38.6248 16.1076 38.1969 13.4344 35.6974Z" fill="#28BCA1"/>
  <path d="M4.24283 26.507C1.5696 24.0075 1.25918 21.2313 1.37177 20.1376C2.46551 20.025 5.24168 20.3354 7.7412 23.0086C10.2407 25.6819 10.6686 28.3728 10.5519 29.3177C9.60698 29.4344 6.91606 29.0065 4.24283 26.507Z" fill="#28BCA1"/>
  <path d="M31.8195 17.3127C29.1463 14.8131 28.8358 12.037 28.9484 10.9432C30.0422 10.8306 32.8183 11.1411 35.3179 13.8143C37.8174 16.4875 38.2452 19.1785 38.1286 20.1234C37.1836 20.24 34.4927 19.8122 31.8195 17.3127Z" fill="#28BCA1"/>
  <path d="M22.6273 8.12248C19.9541 5.62296 19.6437 2.84679 19.7563 1.75305C20.85 1.64046 23.6262 1.95088 26.1257 4.62411C28.6252 7.29734 29.053 9.98827 28.9364 10.9332C27.9915 11.0498 25.3005 10.622 22.6273 8.12248Z" fill="#28BCA1"/>
  <path d="M31.7592 4.6229C34.2588 1.94967 37.0349 1.63924 38.1287 1.75183C38.2413 2.84557 37.9308 5.62174 35.2576 8.12126C32.5844 10.6208 29.8934 11.0486 28.9485 10.932C28.8319 9.98705 29.2597 7.29612 31.7592 4.6229Z" fill="#1DA48B"/>
  <path d="M13.3748 23.0074C15.8743 20.3342 18.6505 20.0238 19.7442 20.1364C19.8568 21.2301 19.5464 24.0063 16.8731 26.5058C14.1999 29.0053 11.509 29.4331 10.564 29.3165C10.4474 28.3716 10.8753 25.6806 13.3748 23.0074Z" fill="#1DA48B"/>
  <path d="M22.5671 13.816C25.0666 11.1428 27.8428 10.8324 28.9365 10.9449C29.0491 12.0387 28.7387 14.8149 26.0655 17.3144C23.3922 19.8139 20.7013 20.2417 19.7564 20.1251C19.6397 19.1802 20.0676 16.4892 22.5671 13.816Z" fill="#1DA48B"/>
  <path d="M4.18248 32.1986C6.682 29.5254 9.45817 29.2149 10.5519 29.3275C10.6645 30.4213 10.3541 33.1974 7.68085 35.6969C5.00762 38.1965 2.3167 38.6243 1.37174 38.5077C1.25513 37.5627 1.68297 34.8718 4.18248 32.1986Z" fill="#1DA48B"/>
  <path d="M4.24219 8.12223C1.56896 5.62272 1.25854 2.84655 1.37113 1.75281C2.46487 1.64021 5.24104 1.95064 7.74055 4.62387C10.2401 7.2971 10.6679 9.98802 10.5513 10.933C9.60634 11.0496 6.91542 10.6218 4.24219 8.12223Z" fill="#28BCA1"/>
  <path d="M22.6268 26.5068C19.9536 24.0072 19.6432 21.2311 19.7558 20.1373C20.8495 20.0247 23.6257 20.3352 26.1252 23.0084C28.6247 25.6816 29.0526 28.3725 28.9359 29.3175C27.991 29.4341 25.3001 29.0063 22.6268 26.5068Z" fill="#28BCA1"/>
  <path d="M13.4345 17.3136C10.7613 14.8141 10.4509 12.038 10.5634 10.9442C11.6572 10.8316 14.4334 11.142 16.9329 13.8153C19.4324 16.4885 19.8602 19.1794 19.7436 20.1244C18.7987 20.241 16.1077 19.8132 13.4345 17.3136Z" fill="#28BCA1"/>
  <path d="M31.8192 35.6982C29.1459 33.1986 28.8355 30.4225 28.9481 29.3287C30.0418 29.2161 32.818 29.5266 35.3175 32.1998C37.817 34.873 38.2449 37.564 38.1283 38.5089C37.1833 38.6255 34.4924 38.1977 31.8192 35.6982Z" fill="#28BCA1"/>
</svg>
