<svg width="40" height="40" viewBox="0 0 40 40" fill="none" 
  xmlns="http://www.w3.org/2000/svg">
  <path d="M0 4.58314C0 2.05194 2.05194 0 4.58314 0H35.4169C37.9481 0 40 2.05194 40 4.58314V35.4169C40 37.9481 37.9481 40 35.4169 40H4.58314C2.05194 40 0 37.9481 0 35.4169V4.58314Z" fill="#EF69B1"/>
  <rect x="17.2822" y="5" width="5.32883" height="5.32883" fill="#D54190"/>
  <rect x="17.2822" y="17.7271" width="5.32883" height="5.32883" fill="#DF56A0"/>
  <rect x="17.2822" y="30.4585" width="5.32883" height="5.32883" fill="#D54190"/>
  <rect x="30.0115" y="5" width="5.32883" height="5.32883" fill="#DF56A0"/>
  <rect x="30.0115" y="17.7271" width="5.32883" height="5.32883" fill="#D54190"/>
  <rect x="30.0115" y="30.4585" width="5.32883" height="5.32883" fill="#DF56A0"/>
  <rect x="4.55243" y="5" width="5.32883" height="5.32883" fill="#DF56A0"/>
  <rect x="4.55243" y="17.7271" width="5.32883" height="5.32883" fill="#D54190"/>
  <rect x="4.55243" y="30.4585" width="5.32883" height="5.32883" fill="#DF56A0"/>
  <rect x="18.144" y="11.8203" width="3.51753" height="3.51753" fill="#D54190"/>
  <rect x="18.144" y="18.5615" width="3.51753" height="3.51753" fill="#DF56A0"/>
  <rect x="18.144" y="25.3027" width="3.51753" height="3.51753" fill="#D54190"/>
  <rect x="24.8853" y="11.8203" width="3.51753" height="3.51753" fill="#DF56A0"/>
  <rect x="24.8853" y="18.5615" width="3.51753" height="3.51753" fill="#D54190"/>
  <rect x="24.8853" y="25.3027" width="3.51753" height="3.51753" fill="#DF56A0"/>
  <rect x="11.4028" y="11.8203" width="3.51753" height="3.51753" fill="#DF56A0"/>
  <rect x="11.4028" y="18.5615" width="3.51753" height="3.51753" fill="#D54190"/>
  <rect x="11.4028" y="25.3027" width="3.51753" height="3.51753" fill="#DF56A0"/>
</svg>
