<svg width="40" height="40" viewBox="0 0 40 40" fill="none" 
  xmlns="http://www.w3.org/2000/svg">
  <path d="M0 4.58314C0 2.05194 2.05194 0 4.58314 0H35.4169C37.9481 0 40 2.05194 40 4.58314V35.4169C40 37.9481 37.9481 40 35.4169 40H4.58314C2.05194 40 0 37.9481 0 35.4169V4.58314Z" fill="#FFC876"/>
  <path d="M7.37108 19.6297L1.89308 15.9497C1.83512 15.9108 1.79997 15.8551 1.79977 15.8019L1.78066 10.8071C1.78019 10.6827 1.95879 10.6394 2.09363 10.7313L7.4692 14.395C7.52533 14.4333 7.55969 14.4873 7.56095 14.5393L7.6825 19.5504C7.68554 19.6758 7.50724 19.7212 7.37108 19.6297Z" fill="#F0BA69"/>
  <path d="M7.37108 1.31509L1.89308 4.99512C1.83512 5.03405 1.79997 5.08972 1.79977 5.1429L1.78066 10.1377C1.78019 10.2621 1.95879 10.3054 2.09363 10.2135L7.4692 6.54981C7.52533 6.51155 7.55969 6.45752 7.56095 6.40553L7.6825 1.39442C7.68554 1.26904 7.50724 1.22362 7.37108 1.31509Z" fill="#F0BA69"/>
  <path d="M19.6614 19.6297L14.1834 15.9497C14.1254 15.9108 14.0903 15.8551 14.0901 15.8019L14.0709 10.8071C14.0705 10.6827 14.2491 10.6394 14.3839 10.7313L19.7595 14.395C19.8156 14.4333 19.85 14.4873 19.8512 14.5393L19.9728 19.5504C19.9758 19.6758 19.7975 19.7212 19.6614 19.6297Z" fill="#F0BA69"/>
  <path d="M19.6614 1.31509L14.1834 4.99512C14.1254 5.03405 14.0903 5.08972 14.0901 5.1429L14.0709 10.1377C14.0705 10.2621 14.2491 10.3054 14.3839 10.2135L19.7595 6.54981C19.8156 6.51155 19.85 6.45752 19.8512 6.40553L19.9728 1.39442C19.9758 1.26904 19.7975 1.22362 19.6614 1.31509Z" fill="#F0BA69"/>
  <path d="M31.9101 19.6297L26.4321 15.9497C26.3741 15.9108 26.339 15.8551 26.3388 15.8019L26.3197 10.8071C26.3192 10.6827 26.4978 10.6394 26.6326 10.7313L32.0082 14.395C32.0643 14.4333 32.0987 14.4873 32.1 14.5393L32.2215 19.5504C32.2245 19.6758 32.0462 19.7212 31.9101 19.6297Z" fill="#F0BA69"/>
  <path d="M31.9101 1.31509L26.4321 4.99512C26.3741 5.03405 26.339 5.08972 26.3388 5.1429L26.3197 10.1377C26.3192 10.2621 26.4978 10.3054 26.6326 10.2135L32.0082 6.54981C32.0643 6.51155 32.0987 6.45752 32.1 6.40553L32.2215 1.39442C32.2245 1.26904 32.0462 1.22362 31.9101 1.31509Z" fill="#F0BA69"/>
  <path d="M7.37108 20.069L1.89308 23.749C1.83512 23.788 1.79997 23.8436 1.79977 23.8968L1.78066 28.8916C1.78019 29.0161 1.95879 29.0593 2.09363 28.9674L7.4692 25.3037C7.52533 25.2655 7.55969 25.2114 7.56095 25.1594L7.6825 20.1483C7.68554 20.0229 7.50724 19.9775 7.37108 20.069Z" fill="#F0BA69"/>
  <path d="M7.37108 38.3172L1.89308 34.6372C1.83512 34.5983 1.79997 34.5426 1.79977 34.4894L1.78066 29.4946C1.78019 29.3702 1.95879 29.3269 2.09363 29.4188L7.4692 33.0825C7.52533 33.1208 7.55969 33.1748 7.56095 33.2268L7.6825 38.2379C7.68554 38.3633 7.50724 38.4087 7.37108 38.3172Z" fill="#F0BA69"/>
  <path d="M19.6614 20.069L14.1834 23.749C14.1254 23.788 14.0903 23.8436 14.0901 23.8968L14.0709 28.8916C14.0705 29.0161 14.2491 29.0593 14.3839 28.9674L19.7595 25.3037C19.8156 25.2655 19.85 25.2114 19.8512 25.1594L19.9728 20.1483C19.9758 20.0229 19.7975 19.9775 19.6614 20.069Z" fill="#F0BA69"/>
  <path d="M19.6614 38.3172L14.1834 34.6372C14.1254 34.5983 14.0903 34.5426 14.0901 34.4894L14.0709 29.4946C14.0705 29.3702 14.2491 29.3269 14.3839 29.4188L19.7595 33.0825C19.8156 33.1208 19.85 33.1748 19.8512 33.2268L19.9728 38.2379C19.9758 38.3633 19.7975 38.4087 19.6614 38.3172Z" fill="#F0BA69"/>
  <path d="M31.9101 20.069L26.4321 23.749C26.3741 23.788 26.339 23.8436 26.3388 23.8968L26.3197 28.8916C26.3192 29.0161 26.4978 29.0593 26.6326 28.9674L32.0082 25.3037C32.0643 25.2655 32.0987 25.2114 32.1 25.1594L32.2215 20.1483C32.2245 20.0229 32.0462 19.9775 31.9101 20.069Z" fill="#F0BA69"/>
  <path d="M31.9101 38.3172L26.4321 34.6372C26.3741 34.5983 26.339 34.5426 26.3388 34.4894L26.3197 29.4946C26.3192 29.3702 26.4978 29.3269 26.6326 29.4188L32.0082 33.0825C32.0643 33.1208 32.0987 33.1748 32.1 33.2268L32.2215 38.2379C32.2245 38.3633 32.0462 38.4087 31.9101 38.3172Z" fill="#F0BA69"/>
  <path d="M13.4232 10.7182L8.02476 14.4446C7.96698 14.4845 7.93254 14.5413 7.9335 14.5951L8.02227 19.59C8.02448 19.7143 8.20248 19.7557 8.33528 19.6627L13.6316 15.9536C13.6876 15.9144 13.7213 15.8593 13.7214 15.8066L13.7347 10.7946C13.7351 10.6692 13.5573 10.6257 13.4232 10.7182Z" fill="#DFA856"/>
  <path d="M13.4232 10.2288L8.02476 6.50241C7.96698 6.46252 7.93254 6.40574 7.9335 6.35194L8.02227 1.35707C8.02448 1.23267 8.20248 1.19129 8.33528 1.28429L13.6316 4.99347C13.6876 5.03266 13.7213 5.08777 13.7214 5.14038L13.7347 10.1524C13.7351 10.2778 13.5573 10.3214 13.4232 10.2288Z" fill="#DFA856"/>
  <path d="M25.7139 10.7182L20.3155 14.4446C20.2577 14.4845 20.2233 14.5413 20.2242 14.5951L20.313 19.59C20.3152 19.7143 20.4932 19.7557 20.626 19.6627L25.9223 15.9536C25.9783 15.9144 26.012 15.8593 26.0121 15.8066L26.0254 10.7946C26.0258 10.6692 25.848 10.6257 25.7139 10.7182Z" fill="#DFA856"/>
  <path d="M25.7139 10.2288L20.3155 6.50241C20.2577 6.46252 20.2233 6.40574 20.2242 6.35194L20.313 1.35707C20.3152 1.23267 20.4932 1.19129 20.626 1.28429L25.9223 4.99347C25.9783 5.03266 26.012 5.08777 26.0121 5.14038L26.0254 10.1524C26.0258 10.2778 25.848 10.3214 25.7139 10.2288Z" fill="#DFA856"/>
  <path d="M37.9621 10.7182L32.5637 14.4446C32.5059 14.4845 32.4715 14.5413 32.4724 14.5951L32.5612 19.59C32.5634 19.7143 32.7414 19.7557 32.8742 19.6627L38.1706 15.9536C38.2265 15.9144 38.2602 15.8593 38.2604 15.8066L38.2737 10.7946C38.274 10.6692 38.0963 10.6257 37.9621 10.7182Z" fill="#DFA856"/>
  <path d="M37.9621 10.2288L32.5637 6.50241C32.5059 6.46252 32.4715 6.40574 32.4724 6.35194L32.5612 1.35707C32.5634 1.23267 32.7414 1.19129 32.8742 1.28429L38.1706 4.99347C38.2265 5.03266 38.2602 5.08777 38.2604 5.14038L38.2737 10.1524C38.274 10.2778 38.0963 10.3214 37.9621 10.2288Z" fill="#DFA856"/>
  <path d="M13.4232 28.9807L8.02476 25.2544C7.96698 25.2145 7.93254 25.1577 7.9335 25.1039L8.02227 20.109C8.02448 19.9846 8.20248 19.9432 8.33528 20.0362L13.6316 23.7454C13.6876 23.7846 13.7213 23.8397 13.7214 23.8923L13.7347 28.9044C13.7351 29.0298 13.5573 29.0733 13.4232 28.9807Z" fill="#DFA856"/>
  <path d="M13.4232 29.4055L8.02476 33.1319C7.96698 33.1718 7.93254 33.2285 7.9335 33.2823L8.02227 38.2772C8.02448 38.4016 8.20248 38.443 8.33528 38.35L13.6316 34.6408C13.6876 34.6016 13.7213 34.5465 13.7214 34.4939L13.7347 29.4818C13.7351 29.3565 13.5573 29.3129 13.4232 29.4055Z" fill="#DFA856"/>
  <path d="M25.7139 28.9807L20.3155 25.2544C20.2577 25.2145 20.2233 25.1577 20.2242 25.1039L20.313 20.109C20.3152 19.9846 20.4932 19.9432 20.626 20.0362L25.9223 23.7454C25.9783 23.7846 26.012 23.8397 26.0121 23.8923L26.0254 28.9044C26.0258 29.0298 25.848 29.0733 25.7139 28.9807Z" fill="#DFA856"/>
  <path d="M25.7139 29.4055L20.3155 33.1319C20.2577 33.1718 20.2233 33.2285 20.2242 33.2823L20.313 38.2772C20.3152 38.4016 20.4932 38.443 20.626 38.35L25.9223 34.6408C25.9783 34.6016 26.012 34.5465 26.0121 34.4939L26.0254 29.4818C26.0258 29.3565 25.848 29.3129 25.7139 29.4055Z" fill="#DFA856"/>
  <path d="M37.9621 28.9807L32.5637 25.2544C32.5059 25.2145 32.4715 25.1577 32.4724 25.1039L32.5612 20.109C32.5634 19.9846 32.7414 19.9432 32.8742 20.0362L38.1706 23.7454C38.2265 23.7846 38.2602 23.8397 38.2604 23.8923L38.2737 28.9044C38.274 29.0298 38.0963 29.0733 37.9621 28.9807Z" fill="#DFA856"/>
  <path d="M37.9621 29.4055L32.5637 33.1319C32.5059 33.1718 32.4715 33.2285 32.4724 33.2823L32.5612 38.2772C32.5634 38.4016 32.7414 38.443 32.8742 38.35L38.1706 34.6408C38.2265 34.6016 38.2602 34.5465 38.2604 34.4939L38.2737 29.4818C38.274 29.3565 38.0963 29.3129 37.9621 29.4055Z" fill="#DFA856"/>
</svg>
